<?xml version="1.0" encoding="utf-8"?>
<!-- Generator: Adobe Illustrator 16.0.0, SVG Export Plug-In . SVG Version: 6.00 Build 0)  -->
<!DOCTYPE svg PUBLIC "-//W3C//DTD SVG 1.1//EN" "http://www.w3.org/Graphics/SVG/1.1/DTD/svg11.dtd">
<svg version="1.1" id="Layer_1" xmlns="http://www.w3.org/2000/svg" xmlns:xlink="http://www.w3.org/1999/xlink" x="0px" y="0px"
	 width="1400px" height="980px" viewBox="0 0 1400 980" enable-background="new 0 0 1400 980" xml:space="preserve">
<g>
	<g>
		<g>
			<rect fill="#414042" width="1400" height="980"/>
		</g>
	</g>
	<g>
		<g>
			<path fill="#FFFFFF" d="M888.9,721.8H511.1c-1.4,0-2.6-1.1-2.6-2.6v-214c0-9.8,8-17.9,17.9-17.9h347.1c9.8,0,17.9,8,17.9,17.9
				v214C891.4,720.7,890.3,721.8,888.9,721.8z M513.7,716.7h372.6V505.3c0-7-5.7-12.8-12.8-12.8H526.5c-7,0-12.8,5.7-12.8,12.8
				V716.7z"/>
		</g>
		<g>
			<path fill="#FFFFFF" d="M905,788.8H495c-11.4,0-20.6-9.3-20.6-20.6v-22.1c0-1.4,1.1-2.6,2.6-2.6h170.5c1.4,0,2.6,1.1,2.6,2.6
				v10.8h100.2v-10.8c0-1.4,1.1-2.6,2.6-2.6h170.5c1.4,0,2.6,1.1,2.6,2.6v22.1C925.7,779.6,916.4,788.8,905,788.8z M479.4,748.6
				v19.6c0,8.6,7,15.5,15.5,15.5h410c8.6,0,15.5-7,15.5-15.5v-19.6H755.2v10.8c0,1.4-1.1,2.6-2.6,2.6H647.4c-1.4,0-2.6-1.1-2.6-2.6
				v-10.8H479.4z"/>
		</g>
		<g>
			<path fill="#FFFFFF" d="M772.4,721.8H627.6c-0.9,0-1.8-0.5-2.3-1.4c-0.4-0.8-0.4-1.8,0.1-2.6c16.7-24.9,44.6-39.8,74.5-39.8
				c30,0,57.8,14.9,74.5,39.8c0.5,0.8,0.6,1.8,0.1,2.6C774.2,721.3,773.3,721.8,772.4,721.8z M632.6,716.7h134.9
				c-16-21.1-40.8-33.6-67.4-33.6C673.4,683.1,648.5,695.6,632.6,716.7z"/>
		</g>
		<g>
			<path fill="#FFFFFF" d="M640.5,706.5c-1.4,0-2.6-1.1-2.6-2.6V548.7h-51.7c-1.4,0-2.6-1.1-2.6-2.6c0-1.4,1.1-2.6,2.6-2.6h54.2
				c1.4,0,2.6,1.1,2.6,2.6V704C643,705.4,641.9,706.5,640.5,706.5z"/>
		</g>
		<g>
			<path fill="#FFFFFF" d="M664.3,690.9c-1.4,0-2.6-1.1-2.6-2.6V455.1H387.2v175.7c0,1.4-1.1,2.6-2.6,2.6c-1.4,0-2.6-1.1-2.6-2.6
				V452.6c0-1.4,1.1-2.6,2.6-2.6h279.6c1.4,0,2.6,1.1,2.6,2.6v235.8C666.8,689.7,665.7,690.9,664.3,690.9z"/>
		</g>
		<g>
			<path fill="#FFFFFF" d="M688.1,684.2c-1.4,0-2.6-1.1-2.6-2.6V362c0-1.4,1.1-2.6,2.6-2.6h237.6v-59.1c0-1.4,1.1-2.6,2.6-2.6h53
				c1.4,0,2.6,1.1,2.6,2.6c0,1.4-1.1,2.6-2.6,2.6h-50.4V362c0,1.4-1.1,2.6-2.6,2.6H690.6v317.1C690.6,683,689.5,684.2,688.1,684.2z"
				/>
		</g>
		<g>
			<path fill="#FFFFFF" d="M711.9,684.2c-1.4,0-2.6-1.1-2.6-2.6V552.1c0-1.4,1.1-2.6,2.6-2.6h105.3c1.4,0,2.6,1.1,2.6,2.6
				c0,1.4-1.1,2.6-2.6,2.6H714.5v127C714.5,683,713.3,684.2,711.9,684.2z"/>
		</g>
		<g>
			<path fill="#FFFFFF" d="M735.7,690.9c-1.4,0-2.6-1.1-2.6-2.6V416.8H544.3c-1.4,0-2.6-1.1-2.6-2.6V313c0-1.4,1.1-2.6,2.6-2.6h41.9
				c1.4,0,2.6,1.1,2.6,2.6c0,1.4-1.1,2.6-2.6,2.6h-39.3v96.1h188.8c1.4,0,2.6,1.1,2.6,2.6v274C738.3,689.7,737.1,690.9,735.7,690.9z
				"/>
		</g>
		<g>
			<path fill="#FFFFFF" d="M759.5,706.5c-1.4,0-2.6-1.1-2.6-2.6V464c0-1.4,1.1-2.6,2.6-2.6h225.5c1.4,0,2.6,1.1,2.6,2.6
				s-1.1,2.6-2.6,2.6h-223V704C762.1,705.4,761,706.5,759.5,706.5z"/>
		</g>
		<g>
			<path fill="#FFFFFF" d="M868,721.8c-1.4,0-2.6-1.1-2.6-2.6V515.9h-21.7c-1.4,0-2.6-1.1-2.6-2.6s1.1-2.6,2.6-2.6H868
				c1.4,0,2.6,1.1,2.6,2.6v205.9C870.6,720.7,869.4,721.8,868,721.8z"/>
		</g>
		<g>
			<path fill="#FFFFFF" d="M533.7,545.3c-1.4,0-2.6-1.1-2.6-2.6v-29.4c0-1.4,1.1-2.6,2.6-2.6H555c1.4,0,2.6,1.1,2.6,2.6
				s-1.1,2.6-2.6,2.6h-18.7v26.8C536.2,544.2,535.1,545.3,533.7,545.3z"/>
		</g>
		<g>
			<path fill="#FFFFFF" d="M533.7,721.8c-1.4,0-2.6-1.1-2.6-2.6V602.7c0-1.4,1.1-2.6,2.6-2.6c1.4,0,2.6,1.1,2.6,2.6v116.5
				C536.2,720.7,535.1,721.8,533.7,721.8z"/>
		</g>
	</g>
	<g>
		<path fill="#FFFFFF" d="M1293.9,906.6h-293.5c-9.8,0-17.9-8-17.9-17.9V431.7c0-1.4,1.1-2.6,2.6-2.6h324.1c1.4,0,2.6,1.1,2.6,2.6
			v457.1C1311.7,898.6,1303.7,906.6,1293.9,906.6z M987.6,434.3v454.5c0,7,5.7,12.8,12.8,12.8h293.5c7,0,12.8-5.7,12.8-12.8V434.3
			H987.6z"/>
	</g>
	<g>
		<path fill="#FFFFFF" d="M1309.2,434.3H985.1c-1.4,0-2.6-1.1-2.6-2.6v-38.1c0-9.8,8-17.9,17.9-17.9h293.5c9.9,0,17.9,8,17.9,17.9
			v38.1C1311.7,433.1,1310.6,434.3,1309.2,434.3z M987.6,429.2h319v-35.5c0-7-5.7-12.8-12.8-12.8h-293.5c-7,0-12.8,5.7-12.8,12.8
			V429.2z"/>
	</g>
	<g>
		<path fill="#FFFFFF" d="M1015.5,418.5c-7.4,0-13.5-6.1-13.5-13.5c0-7.4,6.1-13.5,13.5-13.5c7.4,0,13.5,6.1,13.5,13.5
			C1029,412.5,1022.9,418.5,1015.5,418.5z M1015.5,396.6c-4.6,0-8.4,3.8-8.4,8.4c0,4.6,3.8,8.4,8.4,8.4s8.4-3.8,8.4-8.4
			C1023.9,400.4,1020.1,396.6,1015.5,396.6z"/>
	</g>
	<g>
		<path fill="#FFFFFF" d="M1121.6,407.6h-72.1c-1.4,0-2.6-1.1-2.6-2.6c0-1.4,1.1-2.6,2.6-2.6h72.1c1.4,0,2.6,1.1,2.6,2.6
			C1124.2,406.4,1123,407.6,1121.6,407.6z"/>
	</g>
	<g>
		<path fill="#FFFFFF" d="M1177.7,407.6H1142c-1.4,0-2.6-1.1-2.6-2.6c0-1.4,1.1-2.6,2.6-2.6h35.7c1.4,0,2.6,1.1,2.6,2.6
			C1180.3,406.4,1179.2,407.6,1177.7,407.6z"/>
	</g>
	<g>
		<path fill="#FFFFFF" d="M1288.8,628.8h-283.3c-1.4,0-2.6-1.1-2.6-2.6V451.4c0-1.4,1.1-2.6,2.6-2.6h283.3c1.4,0,2.6,1.1,2.6,2.6
			v174.8C1291.3,627.7,1290.2,628.8,1288.8,628.8z M1008,623.7h278.2V454H1008V623.7z"/>
	</g>
	<g>
		<path fill="#FFFFFF" d="M569.8,896.4c-15.6,0-28.3-12.7-28.3-28.3c0-15.6,12.7-28.3,28.3-28.3c15.6,0,28.3,12.7,28.3,28.3
			C598.1,883.7,585.4,896.4,569.8,896.4z M569.8,845c-12.8,0-23.2,10.4-23.2,23.2c0,12.8,10.4,23.2,23.2,23.2
			c12.8,0,23.2-10.4,23.2-23.2C593,855.4,582.6,845,569.8,845z"/>
	</g>
	<g>
		<path fill="#FFFFFF" d="M700,896.4c-15.6,0-28.3-12.7-28.3-28.3c0-15.6,12.7-28.3,28.3-28.3c15.6,0,28.3,12.7,28.3,28.3
			C728.3,883.7,715.6,896.4,700,896.4z M700,845c-12.8,0-23.2,10.4-23.2,23.2c0,12.8,10.4,23.2,23.2,23.2
			c12.8,0,23.2-10.4,23.2-23.2C723.2,855.4,712.8,845,700,845z"/>
	</g>
	<g>
		<path fill="#FFFFFF" d="M830.2,896.4c-15.6,0-28.3-12.7-28.3-28.3c0-15.6,12.7-28.3,28.3-28.3c15.6,0,28.3,12.7,28.3,28.3
			C858.5,883.7,845.8,896.4,830.2,896.4z M830.2,845c-12.8,0-23.2,10.4-23.2,23.2c0,12.8,10.4,23.2,23.2,23.2
			c12.8,0,23.2-10.4,23.2-23.2C853.3,855.4,843,845,830.2,845z"/>
	</g>
	<g>
		<path fill="#FFFFFF" d="M997.4,327.5c-10.3,0-18.7-8.4-18.7-18.7V90.4c0-1.4,1.1-2.6,2.6-2.6h98.3c0.7,0,1.3,0.3,1.8,0.7
			l24.8,24.8h124c1.4,0,2.6,1.1,2.6,2.6v23.6c0,1.4-1.1,2.6-2.6,2.6h-214v166.7C1016.1,319.1,1007.7,327.5,997.4,327.5z M983.8,92.9
			v215.9c0,7.5,6.1,13.6,13.6,13.6c7.5,0,13.6-6.1,13.6-13.6V139.5c0-1.4,1.1-2.6,2.6-2.6h214v-18.5H1105c-0.7,0-1.3-0.3-1.8-0.7
			l-24.8-24.8H983.8z"/>
	</g>
	<g>
		<g>
			<path fill="#FFFFFF" d="M402.7,904.7h-286c-10.1,0-18.4-8.3-18.4-18.4v-278c0-10.1,8.2-18.4,18.4-18.4h229.7
				c0.7,0,1.3,0.3,1.8,0.7l72.1,72.1c0.5,0.5,0.7,1.1,0.7,1.8v221.7C421.1,896.4,412.8,904.7,402.7,904.7z M116.7,595.1
				c-7.3,0-13.3,6-13.3,13.3v278c0,7.3,6,13.3,13.3,13.3h286c7.3,0,13.3-6,13.3-13.3V665.7l-70.6-70.6H116.7z"/>
		</g>
		<g>
			<path fill="#FFFFFF" d="M324.4,690.1h-159c-1.4,0-2.6-1.1-2.6-2.6v-95c0-1.4,1.1-2.6,2.6-2.6h159c1.4,0,2.6,1.1,2.6,2.6v95
				C326.9,688.9,325.8,690.1,324.4,690.1z M167.9,685h153.9v-89.9H167.9V685z"/>
		</g>
		<g>
			<path fill="#FFFFFF" d="M259.7,805c-24,0-43.5-19.5-43.5-43.5s19.5-43.5,43.5-43.5c24,0,43.5,19.5,43.5,43.5S283.7,805,259.7,805
				z M259.7,723.2c-21.1,0-38.4,17.2-38.4,38.4s17.2,38.4,38.4,38.4c21.1,0,38.4-17.2,38.4-38.4S280.8,723.2,259.7,723.2z"/>
		</g>
		<g>
			<path fill="#FFFFFF" d="M204.3,666.3h-12.9c-1.4,0-2.6-1.1-2.6-2.6v-47.5c0-1.4,1.1-2.6,2.6-2.6h12.9c1.4,0,2.6,1.1,2.6,2.6v47.5
				C206.9,665.2,205.7,666.3,204.3,666.3z M194,661.2h7.8v-42.4H194V661.2z"/>
		</g>
		<g>
			<path fill="#FFFFFF" d="M251.3,666.3h-12.9c-1.4,0-2.6-1.1-2.6-2.6v-47.5c0-1.4,1.1-2.6,2.6-2.6h12.9c1.4,0,2.6,1.1,2.6,2.6v47.5
				C253.9,665.2,252.7,666.3,251.3,666.3z M241,661.2h7.8v-42.4H241V661.2z"/>
		</g>
		<g>
			<path fill="#FFFFFF" d="M298.3,666.3h-12.9c-1.4,0-2.6-1.1-2.6-2.6v-47.5c0-1.4,1.1-2.6,2.6-2.6h12.9c1.4,0,2.6,1.1,2.6,2.6v47.5
				C300.9,665.2,299.7,666.3,298.3,666.3z M288,661.2h7.8v-42.4H288V661.2z"/>
		</g>
		<g>
			<path fill="#FFFFFF" d="M140.3,888.7h-19.8c-1.4,0-2.6-1.1-2.6-2.6v-19.8c0-1.4,1.1-2.6,2.6-2.6h19.8c1.4,0,2.6,1.1,2.6,2.6v19.8
				C142.9,887.5,141.7,888.7,140.3,888.7z M123.1,883.6h14.7v-14.7h-14.7V883.6z"/>
		</g>
		<g>
			<path fill="#FFFFFF" d="M401.6,888.7h-19.8c-1.4,0-2.6-1.1-2.6-2.6v-19.8c0-1.4,1.1-2.6,2.6-2.6h19.8c1.4,0,2.6,1.1,2.6,2.6v19.8
				C404.1,887.5,403,888.7,401.6,888.7z M384.3,883.6H399v-14.7h-14.7V883.6z"/>
		</g>
		<g>
			<path fill="#FFFFFF" d="M341.5,830.6H177.8c-1.4,0-2.6-1.1-2.6-2.6s1.1-2.6,2.6-2.6h163.7c1.4,0,2.6,1.1,2.6,2.6
				S343,830.6,341.5,830.6z"/>
		</g>
		<g>
			<path fill="#FFFFFF" d="M341.5,861H177.8c-1.4,0-2.6-1.1-2.6-2.6c0-1.4,1.1-2.6,2.6-2.6h163.7c1.4,0,2.6,1.1,2.6,2.6
				C344.1,859.8,343,861,341.5,861z"/>
		</g>
	</g>
	<g>
		<path fill="#FFFFFF" d="M586.8,287.5c-44,0-79.8-35-79.8-78.1c0-43.1,35.8-78.1,79.8-78.1c13.3,0,26.5,3.3,38.1,9.4
			c17.8-32.7,52.1-52.9,90-52.9c52.2,0,95.4,37.8,101.3,88.3c29.5,2,53.1,26.5,53.1,55.6c0,1.4-1.1,2.6-2.6,2.6
			c-1.4,0-2.6-1.1-2.6-2.6c0-27.1-22.6-49.9-50.4-50.6c-1.3,0-2.3-1-2.5-2.3c-4.6-49-46.1-85.9-96.4-85.9c-37,0-70.2,20.1-86.7,52.4
			c-0.3,0.6-0.9,1.1-1.6,1.3c-0.7,0.2-1.4,0.1-2-0.2c-11.4-6.6-24.5-10-37.9-10c-41.2,0-74.7,32.8-74.7,73c0,40.3,33.5,73,74.7,73
			c1.4,0,2.6,1.1,2.6,2.6C589.3,286.4,588.2,287.5,586.8,287.5z"/>
	</g>
	<g>
		<path fill="#FFFFFF" d="M735.7,315.6H586.2c-1.4,0-2.6-1.1-2.6-2.6c0-1.4,1.1-2.6,2.6-2.6h149.5c1.4,0,2.6,1.1,2.6,2.6
			C738.3,314.5,737.1,315.6,735.7,315.6z"/>
	</g>
	<g>
		<path fill="#FFFFFF" d="M820.4,334.7c-0.3,0-0.7-0.1-1-0.2c-1-0.4-1.6-1.3-1.6-2.4v-16.6h-46.6c-1.4,0-2.6-1.1-2.6-2.6
			c0-1.4,1.1-2.6,2.6-2.6h49.1c1.4,0,2.6,1.1,2.6,2.6v12.9l40.1-41L823,244v14.6c0,1.4-1.1,2.6-2.6,2.6H620.1
			c-1.4,0-2.6-1.1-2.6-2.6c0-1.4,1.1-2.6,2.6-2.6h197.8v-18.3c0-1,0.6-2,1.6-2.4c1-0.4,2.1-0.2,2.8,0.6l46.3,47.2c1,1,1,2.6,0,3.6
			L822.3,334C821.8,334.5,821.1,334.7,820.4,334.7z"/>
	</g>
	<g>
		<path fill="#FFFFFF" d="M782.9,193.9c-1.4,0-2.6-1.1-2.6-2.6c0-35.7-29-64.7-64.7-64.7c-1.4,0-2.6-1.1-2.6-2.6
			c0-1.4,1.1-2.6,2.6-2.6c38.5,0,69.8,31.3,69.8,69.8C785.5,192.7,784.4,193.9,782.9,193.9z"/>
	</g>
	<g>
		<path fill="#FFFFFF" d="M1246,327.5H997.4c-1.4,0-2.6-1.1-2.6-2.6c0-1.4,1.1-2.6,2.6-2.6c7.5,0,13.6-6.1,13.6-13.6V139.5
			c0-1.4,1.1-2.6,2.6-2.6H1262c1.4,0,2.6,1.1,2.6,2.6V309C1264.5,319.2,1256.2,327.5,1246,327.5z M1010.2,322.4H1246
			c7.4,0,13.4-6,13.4-13.4V142h-243.3v166.7C1016.1,314.1,1013.8,319,1010.2,322.4z"/>
	</g>
	<g>
		<path fill="#FFFFFF" d="M1136.3,297.7c-35.5,0-64.4-28.9-64.4-64.4s28.9-64.4,64.4-64.4c35.5,0,64.4,28.9,64.4,64.4
			S1171.8,297.7,1136.3,297.7z M1136.3,173.9c-32.7,0-59.3,26.6-59.3,59.3s26.6,59.3,59.3,59.3c32.7,0,59.3-26.6,59.3-59.3
			S1169,173.9,1136.3,173.9z"/>
	</g>
	<g>
		<path fill="#FFFFFF" d="M1128.5,266.7c-0.7,0-1.3-0.2-1.8-0.7l-30-30c-1-1-1-2.6,0-3.6c1-1,2.6-1,3.6,0l28.1,28.1l48.7-48.7
			c1-1,2.6-1,3.6,0c1,1,1,2.6,0,3.6l-50.6,50.5C1129.8,266.4,1129.1,266.7,1128.5,266.7z"/>
	</g>
	<g>
		<g>
			<path fill="#FFFFFF" d="M325.5,548.4H100.8c-1.4,0-2.6-1.1-2.6-2.6V227.3c0-1.4,1.1-2.6,2.6-2.6h180c0.7,0,1.3,0.3,1.8,0.7
				l44.6,44.6c0.5,0.5,0.7,1.1,0.7,1.8v273.9C328,547.2,326.9,548.4,325.5,548.4z M103.4,543.3h219.5V273l-43.1-43.1H103.4V543.3z"
				/>
		</g>
		<g>
			<path fill="#FFFFFF" d="M150.8,312.9c-16,0-28.9-13-28.9-28.9c0-16,13-28.9,28.9-28.9c16,0,28.9,13,28.9,28.9
				C179.8,299.9,166.8,312.9,150.8,312.9z M150.8,260.1c-13.1,0-23.8,10.7-23.8,23.8c0,13.1,10.7,23.8,23.8,23.8
				c13.1,0,23.8-10.7,23.8-23.8C174.7,270.8,164,260.1,150.8,260.1z"/>
		</g>
		<g>
			<path fill="#FFFFFF" d="M302.2,286.5H198.8c-1.4,0-2.6-1.1-2.6-2.6c0-1.4,1.1-2.6,2.6-2.6h103.4c1.4,0,2.6,1.1,2.6,2.6
				C304.8,285.4,303.7,286.5,302.2,286.5z"/>
		</g>
		<g>
			<path fill="#FFFFFF" d="M302.2,312.9H185.1c-1.4,0-2.6-1.1-2.6-2.6c0-1.4,1.1-2.6,2.6-2.6h117.1c1.4,0,2.6,1.1,2.6,2.6
				C304.8,311.8,303.7,312.9,302.2,312.9z"/>
		</g>
		<g>
			<path fill="#FFFFFF" d="M302.2,339.1H124.4c-1.4,0-2.6-1.1-2.6-2.6c0-1.4,1.1-2.6,2.6-2.6h177.8c1.4,0,2.6,1.1,2.6,2.6
				C304.8,338,303.7,339.1,302.2,339.1z"/>
		</g>
		<g>
			<path fill="#FFFFFF" d="M302.2,366.5H124.4c-1.4,0-2.6-1.1-2.6-2.6c0-1.4,1.1-2.6,2.6-2.6h177.8c1.4,0,2.6,1.1,2.6,2.6
				C304.8,365.4,303.7,366.5,302.2,366.5z"/>
		</g>
		<g>
			<path fill="#FFFFFF" d="M302.2,394H124.4c-1.4,0-2.6-1.1-2.6-2.6c0-1.4,1.1-2.6,2.6-2.6h177.8c1.4,0,2.6,1.1,2.6,2.6
				C304.8,392.8,303.7,394,302.2,394z"/>
		</g>
		<g>
			<path fill="#FFFFFF" d="M232.1,421.4H124.4c-1.4,0-2.6-1.1-2.6-2.6c0-1.4,1.1-2.6,2.6-2.6h107.6c1.4,0,2.6,1.1,2.6,2.6
				C234.6,420.3,233.5,421.4,232.1,421.4z"/>
		</g>
	</g>
	<g>
		<path fill="#FFFFFF" d="M505.5,416.6H363c-1.4,0-2.6-1.1-2.6-2.6V271.6c0-1.4,1.1-2.6,2.6-2.6h142.5c1.4,0,2.6,1.1,2.6,2.6v142.5
			C508,415.5,506.9,416.6,505.5,416.6z M365.5,411.5h137.4V274.1H365.5V411.5z"/>
	</g>
	<g>
		<path fill="#FFFFFF" d="M469.9,381.1c-0.3,0-0.6-0.1-1-0.2l-68.5-27.5c-0.9-0.4-1.5-1.2-1.6-2.2c-0.1-1,0.5-1.9,1.3-2.4l15-8.2
			l-25.1-25.1c-0.5-0.5-0.7-1.1-0.7-1.8c0-0.7,0.3-1.3,0.7-1.8l13.2-13.2c1-1,2.6-1,3.6,0l25.1,25.1l8.2-15c0.5-0.9,1.4-1.4,2.4-1.3
			c1,0.1,1.9,0.7,2.2,1.6l27.5,68.5c0.4,1,0.2,2-0.6,2.8C471.2,380.8,470.6,381.1,469.9,381.1z M407.4,350.7l57.9,23.3L442.1,316
			l-7.2,13.3c-0.4,0.7-1.1,1.2-1.9,1.3c-0.8,0.1-1.6-0.2-2.2-0.7l-25.7-25.7l-9.6,9.6l25.7,25.7c0.6,0.6,0.8,1.4,0.7,2.2
			c-0.1,0.8-0.6,1.5-1.3,1.9L407.4,350.7z"/>
	</g>
	<g>
		<g>
			<path fill="#FFFFFF" d="M1147.1,559.5c-0.5,0-1.1-0.2-1.6-0.5l-96.7-74.4c-0.9-0.7-1.2-1.8-0.9-2.8c0.4-1,1.3-1.7,2.4-1.7h193.3
				c1.1,0,2.1,0.7,2.4,1.7c0.3,1,0,2.2-0.9,2.8l-96.7,74.4C1148.2,559.3,1147.7,559.5,1147.1,559.5z M1058,485l89.2,68.7l89.2-68.7
				H1058z"/>
		</g>
		<g>
			<path fill="#FFFFFF" d="M1243.8,597.8h-193.3c-1.4,0-2.6-1.1-2.6-2.6V482.5c0-1,0.6-1.9,1.4-2.3c0.9-0.4,1.9-0.3,2.7,0.3
				l95.1,73.2l95.1-73.2c0.8-0.6,1.8-0.7,2.7-0.3c0.9,0.4,1.4,1.3,1.4,2.3v112.7C1246.3,596.6,1245.2,597.8,1243.8,597.8z
				 M1053,592.7h188.2v-105l-92.6,71.3c-0.9,0.7-2.2,0.7-3.1,0l-92.6-71.3V592.7z"/>
		</g>
	</g>
	<g>
		<path fill="#FFFFFF" d="M1058,710.2h-52.6c-1.4,0-2.6-1.1-2.6-2.6V655c0-1.4,1.1-2.6,2.6-2.6h52.6c1.4,0,2.6,1.1,2.6,2.6v52.6
			C1060.6,709,1059.4,710.2,1058,710.2z M1008,705h47.5v-47.5H1008V705z"/>
	</g>
	<g>
		<path fill="#FFFFFF" d="M1058,789.5h-52.6c-1.4,0-2.6-1.1-2.6-2.6v-52.6c0-1.4,1.1-2.6,2.6-2.6h52.6c1.4,0,2.6,1.1,2.6,2.6V787
			C1060.6,788.4,1059.4,789.5,1058,789.5z M1008,784.4h47.5V737H1008V784.4z"/>
	</g>
	<g>
		<path fill="#FFFFFF" d="M1058,868.9h-52.6c-1.4,0-2.6-1.1-2.6-2.6v-52.6c0-1.4,1.1-2.6,2.6-2.6h52.6c1.4,0,2.6,1.1,2.6,2.6v52.6
			C1060.6,867.7,1059.4,868.9,1058,868.9z M1008,863.8h47.5v-47.5H1008V863.8z"/>
	</g>
	<g>
		<path fill="#FFFFFF" d="M1288.8,667.1h-203.2c-1.4,0-2.6-1.1-2.6-2.6c0-1.4,1.1-2.6,2.6-2.6h203.2c1.4,0,2.6,1.1,2.6,2.6
			C1291.3,666,1290.2,667.1,1288.8,667.1z"/>
	</g>
	<g>
		<path fill="#FFFFFF" d="M1159.9,699.1h-74.3c-1.4,0-2.6-1.1-2.6-2.6s1.1-2.6,2.6-2.6h74.3c1.4,0,2.6,1.1,2.6,2.6
			S1161.3,699.1,1159.9,699.1z"/>
	</g>
	<g>
		<path fill="#FFFFFF" d="M1288.8,747.2h-203.2c-1.4,0-2.6-1.1-2.6-2.6c0-1.4,1.1-2.6,2.6-2.6h203.2c1.4,0,2.6,1.1,2.6,2.6
			C1291.3,746.1,1290.2,747.2,1288.8,747.2z"/>
	</g>
	<g>
		<path fill="#FFFFFF" d="M1252,779.2h-166.4c-1.4,0-2.6-1.1-2.6-2.6c0-1.4,1.1-2.6,2.6-2.6H1252c1.4,0,2.6,1.1,2.6,2.6
			C1254.5,778.1,1253.4,779.2,1252,779.2z"/>
	</g>
	<g>
		<path fill="#FFFFFF" d="M1288.8,827.4h-203.2c-1.4,0-2.6-1.1-2.6-2.6s1.1-2.6,2.6-2.6h203.2c1.4,0,2.6,1.1,2.6,2.6
			S1290.2,827.4,1288.8,827.4z"/>
	</g>
	<g>
		<path fill="#FFFFFF" d="M1201.8,859.4h-116.2c-1.4,0-2.6-1.1-2.6-2.6c0-1.4,1.1-2.6,2.6-2.6h116.2c1.4,0,2.6,1.1,2.6,2.6
			C1204.3,858.2,1203.2,859.4,1201.8,859.4z"/>
	</g>
	<g>
		<path fill="#FFFFFF" d="M1027.5,694.4c-0.7,0-1.3-0.2-1.8-0.7l-11.6-11.6c-1-1-1-2.6,0-3.6c1-1,2.6-1,3.6,0l9.8,9.8l19.3-19.2
			c1-1,2.6-1,3.6,0c1,1,1,2.6,0,3.6l-21.1,21.1C1028.8,694.1,1028.1,694.4,1027.5,694.4z"/>
	</g>
	<g>
		<path fill="#FFFFFF" d="M1027.5,773.8c-0.7,0-1.3-0.3-1.8-0.7l-11.6-11.6c-1-1-1-2.6,0-3.6c1-1,2.6-1,3.6,0l9.8,9.8l19.3-19.2
			c1-1,2.6-1,3.6,0c1,1,1,2.6,0,3.6l-21.1,21.1C1028.8,773.5,1028.1,773.8,1027.5,773.8z"/>
	</g>
	<g>
		<path fill="#FFFFFF" d="M1027.5,853.1c-0.7,0-1.3-0.2-1.8-0.7l-11.6-11.6c-1-1-1-2.6,0-3.6c1-1,2.6-1,3.6,0l9.8,9.8l19.3-19.2
			c1-1,2.6-1,3.6,0c1,1,1,2.6,0,3.6l-21.1,21.1C1028.8,852.9,1028.1,853.1,1027.5,853.1z"/>
	</g>
	<g>
		<path fill="#FFFFFF" d="M439.5,142H100.8c-1.4,0-2.6-1.1-2.6-2.6v-37c0-1.4,1.1-2.6,2.6-2.6h338.7c1.4,0,2.6,1.1,2.6,2.6v37
			C442.1,140.9,440.9,142,439.5,142z M103.4,136.9H437V105H103.4V136.9z"/>
	</g>
	<g>
		<path fill="#FFFFFF" d="M356.6,185.4H100.8c-1.4,0-2.6-1.1-2.6-2.6c0-1.4,1.1-2.6,2.6-2.6h255.7c1.4,0,2.6,1.1,2.6,2.6
			C359.1,184.3,358,185.4,356.6,185.4z"/>
	</g>
	<g>
		<path fill="#FFFFFF" d="M415.3,185.4h-27.4c-1.4,0-2.6-1.1-2.6-2.6c0-1.4,1.1-2.6,2.6-2.6h27.4c1.4,0,2.6,1.1,2.6,2.6
			C417.8,184.3,416.7,185.4,415.3,185.4z"/>
	</g>
</g>
</svg>
